<svg width="13" height="14" viewBox="0 0 13 14" fill="none" xmlns="http://www.w3.org/2000/svg">
	<circle cx="6.5" cy="6.5" r="6.5" fill="#C4C4C4"/>
	<path d="M6.99805 11H5.91406V4.66016H6.99805V11ZM5.82617 2.97852C5.82617 2.80273 5.87891 2.6543 5.98438 2.5332C6.09375 2.41211 6.25391 2.35156 6.46484 2.35156C6.67578 2.35156 6.83594 2.41211 6.94531 2.5332C7.05469 2.6543 7.10938 2.80273 7.10938 2.97852C7.10938 3.1543 7.05469 3.30078 6.94531 3.41797C6.83594 3.53516 6.67578 3.59375 6.46484 3.59375C6.25391 3.59375 6.09375 3.53516 5.98438 3.41797C5.87891 3.30078 5.82617 3.1543 5.82617 2.97852Z" fill="black"/>
</svg>
